<?xml version="1.0" encoding="utf-8"?>
<!-- Generator: Adobe Illustrator 24.0.1, SVG Export Plug-In . SVG Version: 6.00 Build 0)  -->
<svg version="1.1" id="Livello_1" xmlns="http://www.w3.org/2000/svg" xmlns:xlink="http://www.w3.org/1999/xlink" x="0px" y="0px"
	 viewBox="0 0 241 196" style="enable-background:new 0 0 241 196;" xml:space="preserve">
<style type="text/css">
	.st0{fill:#FFFFFF;}
	.st1{fill:#29ABE2;}
	.st2{fill:#D51616;}
	.st3{fill:#316A01;}
	.st4{fill:#FF7E00;}
</style>
<g>
	<g>
		<path class="st0" d="M26.9,149.4c-1.2,0-2.1-0.3-2.7-0.9c-4-4,5.5-20.4,20.9-35.7C57.8,99.9,71.4,91,78.1,91
			c1.2,0,2.1,0.3,2.7,0.9c1.9,1.9,0.8,6.7-3,13.3c-3.9,6.8-10.3,14.8-17.9,22.4C47.1,140.4,33.5,149.4,26.9,149.4z"/>
		<path d="M78.1,91.5L78.1,91.5c1.1,0,1.8,0.3,2.3,0.8c3.3,3.3-4.4,18.5-20.9,35c-12.7,12.7-26.1,21.6-32.6,21.6
			c-1.1,0-1.8-0.3-2.3-0.8c-3.3-3.3,4.4-18.5,20.9-35C58.1,100.4,71.6,91.5,78.1,91.5 M78.1,90.5c-6.6,0-20.2,8.7-33.4,21.9
			c-15.8,15.8-25.2,32.1-20.9,36.4c0.7,0.7,1.7,1,3,1c6.6,0,20.2-8.7,33.4-21.9C76,112.1,85.4,95.8,81.1,91.5
			C80.4,90.8,79.4,90.5,78.1,90.5L78.1,90.5z"/>
	</g>
	<g>
		<path class="st0" d="M214.1,149.4c-6.6,0-20.2-8.9-33-21.8c-7.6-7.6-14-15.6-17.9-22.4c-3.8-6.6-4.8-11.4-3-13.3
			c0.6-0.6,1.5-0.9,2.7-0.9c6.6,0,20.2,8.9,33,21.8c15.3,15.3,24.9,31.7,20.9,35.7C216.2,149.1,215.2,149.4,214.1,149.4L214.1,149.4
			z"/>
		<path d="M162.9,91.5c6.5,0,19.9,8.9,32.7,21.6c16.5,16.5,24.2,31.7,20.9,35c-0.5,0.5-1.3,0.8-2.3,0.8c-6.5,0-19.9-8.9-32.7-21.6
			c-7.6-7.6-13.9-15.5-17.8-22.3c-3.6-6.3-4.7-11-3-12.7C161,91.7,161.8,91.5,162.9,91.5 M162.9,90.5c-1.3,0-2.3,0.3-3,1
			c-4.3,4.3,5,20.6,20.9,36.4c13.2,13.2,26.8,21.9,33.4,21.9c1.3,0,2.3-0.3,3-1c4.3-4.3-5-20.6-20.9-36.4
			C183,99.2,169.5,90.5,162.9,90.5L162.9,90.5z"/>
	</g>
	<g>
		<ellipse class="st0" cx="121" cy="133.7" rx="49.5" ry="61"/>
		<path d="M121,73.2c27,0,49,27.1,49,60.5s-22,60.5-49,60.5S72,167,72,133.7S93.9,73.2,121,73.2 M121,72.2c-27.6,0-50,27.5-50,61.5
			s22.4,61.5,50,61.5s50-27.5,50-61.5S148.6,72.2,121,72.2L121,72.2z"/>
	</g>
	<g>
		<ellipse class="st0" cx="120.5" cy="51.7" rx="73" ry="51"/>
		<path d="M120.5,1.2c40,0,72.5,22.7,72.5,50.5s-32.5,50.5-72.5,50.5S48,79.5,48,51.7S80.5,1.2,120.5,1.2 M120.5,0.2
			C79.9,0.2,47,23.2,47,51.7s32.9,51.5,73.5,51.5S194,80.1,194,51.7S161.1,0.2,120.5,0.2L120.5,0.2z"/>
	</g>
	<g>
		<ellipse class="st1" cx="121" cy="44.2" rx="48.5" ry="27.5"/>
		<path d="M121,17.2c26.5,0,48,12.1,48,27s-21.5,27-48,27s-48-12.1-48-27S94.5,17.2,121,17.2 M121,16.2c-27.1,0-49,12.5-49,28
			s21.9,28,49,28s49-12.5,49-28S148,16.2,121,16.2L121,16.2z"/>
	</g>
	<g>
		<circle cx="96" cy="44.2" r="5.5"/>
		<path d="M96,39.2c2.8,0,5,2.2,5,5s-2.2,5-5,5s-5-2.2-5-5S93.2,39.2,96,39.2 M96,38.2c-3.3,0-6,2.7-6,6s2.7,6,6,6s6-2.7,6-6
			S99.3,38.2,96,38.2L96,38.2z"/>
	</g>
	<g>
		<circle cx="146" cy="44.2" r="5.5"/>
		<path d="M146,39.2c2.8,0,5,2.2,5,5s-2.2,5-5,5s-5-2.2-5-5S143.2,39.2,146,39.2 M146,38.2c-3.3,0-6,2.7-6,6s2.7,6,6,6s6-2.7,6-6
			S149.3,38.2,146,38.2L146,38.2z"/>
	</g>
	<g>
		<ellipse class="st0" cx="121.5" cy="137.7" rx="33" ry="21"/>
		<path d="M121.5,117.2c17.9,0,32.5,9.2,32.5,20.5s-14.6,20.5-32.5,20.5S89,149,89,137.7S103.5,117.2,121.5,117.2 M121.5,116.2
			c-18.5,0-33.5,9.6-33.5,21.5s15,21.5,33.5,21.5s33.5-9.6,33.5-21.5S140,116.2,121.5,116.2L121.5,116.2z"/>
	</g>
	<g>
		<circle class="st2" cx="100" cy="137.2" r="6"/>
	</g>
	<g>
		<circle class="st3" cx="121" cy="137.2" r="6"/>
	</g>
	<g>
		<circle class="st4" cx="142" cy="137.2" r="6"/>
	</g>
</g>
</svg>
