<?xml version="1.0" encoding="utf-8"?>
<!-- Generator: Adobe Illustrator 24.0.1, SVG Export Plug-In . SVG Version: 6.00 Build 0)  -->
<svg version="1.1" id="Livello_1" xmlns="http://www.w3.org/2000/svg" xmlns:xlink="http://www.w3.org/1999/xlink" x="0px" y="0px"
	 viewBox="0 0 208 196" style="enable-background:new 0 0 208 196;" xml:space="preserve">
<style type="text/css">
	.st0{fill:#FFFFFF;}
	.st1{fill:#29ABE2;}
	.st2{fill:#D51616;}
	.st3{fill:#316A01;}
	.st4{fill:#FF7E00;}
</style>
<g>
	<path class="st0" d="M63.9,111.5c-7.2,0-21.1-6.6-34.6-16.4C20.6,88.8,13,81.9,8.1,75.8c-4.8-5.9-6.6-10.5-5-12.7
		c0.7-0.9,2-1.4,3.9-1.4c7.2,0,21.1,6.6,34.6,16.4c8.7,6.3,16.3,13.2,21.2,19.3c4.8,5.9,6.6,10.5,5,12.7
		C67.2,111,65.8,111.5,63.9,111.5z"/>
	<path d="M7,62.2L7,62.2c7.1,0,20.9,6.5,34.3,16.3c8.7,6.3,16.2,13.1,21.1,19.2c4.5,5.6,6.4,10.1,5,12c-0.6,0.8-1.8,1.2-3.5,1.2
		c-7.1,0-20.9-6.5-34.3-16.3C10.7,81,0.7,67.2,3.5,63.4C4,62.6,5.2,62.2,7,62.2 M7,61.2c-2,0-3.5,0.5-4.3,1.6
		c-3.6,4.9,8.2,19.5,26.3,32.7C43.1,105.7,56.8,112,63.9,112c2,0,3.5-0.5,4.3-1.6c3.6-4.9-8.2-19.5-26.3-32.7
		C27.8,67.5,14.1,61.2,7,61.2L7,61.2z"/>
</g>
<g>
	<path class="st0" d="M203,149.8c-6.6,0-20.2-8.9-33-21.8c-15.3-15.3-24.9-31.7-20.9-35.7c0.6-0.6,1.5-0.9,2.7-0.9
		c6.6,0,20.2,8.9,33,21.8c15.3,15.3,24.9,31.7,20.9,35.7C205.1,149.5,204.2,149.8,203,149.8L203,149.8z"/>
	<path d="M151.9,91.9c6.5,0,19.9,8.9,32.7,21.6c16.5,16.5,24.2,31.7,20.9,35c-0.5,0.5-1.3,0.8-2.3,0.8c-6.5,0-19.9-8.9-32.7-21.6
		c-7.6-7.6-13.9-15.5-17.8-22.3c-3.6-6.3-4.7-11-3-12.7C150,92.1,150.8,91.9,151.9,91.9 M151.9,90.9c-1.3,0-2.3,0.3-3,1
		c-4.3,4.3,5,20.6,20.9,36.4c13.2,13.2,26.8,21.9,33.4,21.9c1.3,0,2.3-0.3,3-1c4.3-4.3-5-20.6-20.9-36.4
		C172,99.6,158.5,90.9,151.9,90.9L151.9,90.9z"/>
</g>
<g>
	<ellipse class="st0" cx="110" cy="134.1" rx="49.5" ry="61"/>
	<path d="M110,73.6c27,0,49,27.1,49,60.5s-22,60.5-49,60.5s-49-27.1-49-60.5S82.9,73.6,110,73.6 M110,72.6c-27.6,0-50,27.5-50,61.5
		s22.4,61.5,50,61.5s50-27.5,50-61.5S137.6,72.6,110,72.6L110,72.6z"/>
</g>
<g>
	<ellipse class="st0" cx="109.5" cy="52.1" rx="73" ry="51"/>
	<path d="M109.5,1.6c40,0,72.5,22.7,72.5,50.5s-32.5,50.5-72.5,50.5S37,79.9,37,52.1S69.5,1.6,109.5,1.6 M109.5,0.6
		C68.9,0.6,36,23.6,36,52.1s32.9,51.5,73.5,51.5S183,80.5,183,52.1S150,0.6,109.5,0.6L109.5,0.6z"/>
</g>
<g>
	<ellipse class="st1" cx="110" cy="44.6" rx="48.5" ry="27.5"/>
	<path d="M110,17.6c26.5,0,48,12.1,48,27s-21.5,27-48,27s-48-12.1-48-27S83.5,17.6,110,17.6 M110,16.6c-27.1,0-49,12.5-49,28
		s21.9,28,49,28s49-12.5,49-28S137,16.6,110,16.6L110,16.6z"/>
</g>
<g>
	<circle cx="85" cy="44.6" r="5.5"/>
	<path d="M85,39.6c2.8,0,5,2.2,5,5s-2.2,5-5,5s-5-2.2-5-5S82.2,39.6,85,39.6 M85,38.6c-3.3,0-6,2.7-6,6s2.7,6,6,6c3.3,0,6-2.7,6-6
		S88.3,38.6,85,38.6L85,38.6z"/>
</g>
<g>
	<path d="M135,50.1c-3,0-5.5-2.5-5.5-5.5s2.5-5.5,5.5-5.5c3,0,5.5,2.5,5.5,5.5S138,50.1,135,50.1z"/>
	<path d="M135,39.6c2.8,0,5,2.2,5,5s-2.2,5-5,5c-2.8,0-5-2.2-5-5S132.2,39.6,135,39.6 M135,38.6c-3.3,0-6,2.7-6,6s2.7,6,6,6
		c3.3,0,6-2.7,6-6S138.3,38.6,135,38.6L135,38.6z"/>
</g>
<g>
	<path class="st0" d="M110.5,159.1c-18.2,0-33-9.4-33-21s14.8-21,33-21c18.2,0,33,9.4,33,21S128.6,159.1,110.5,159.1z"/>
	<path d="M110.5,117.6c17.9,0,32.5,9.2,32.5,20.5s-14.6,20.5-32.5,20.5S78,149.4,78,138.1S92.5,117.6,110.5,117.6 M110.5,116.6
		c-18.5,0-33.5,9.6-33.5,21.5c0,11.9,15,21.5,33.5,21.5s33.5-9.6,33.5-21.5C144,126.2,129,116.6,110.5,116.6L110.5,116.6z"/>
</g>
<g>
	<circle class="st2" cx="89" cy="137.6" r="6"/>
</g>
<g>
	<circle class="st3" cx="110" cy="137.6" r="6"/>
</g>
<g>
	<circle class="st4" cx="131" cy="137.6" r="6"/>
</g>
</svg>
