<?xml version="1.0" encoding="utf-8"?>
<!-- Generator: Adobe Illustrator 24.0.1, SVG Export Plug-In . SVG Version: 6.00 Build 0)  -->
<svg version="1.1" id="Livello_1" xmlns="http://www.w3.org/2000/svg" xmlns:xlink="http://www.w3.org/1999/xlink" x="0px" y="0px"
	 viewBox="0 0 930 237" style="enable-background:new 0 0 930 237;" xml:space="preserve">
<style type="text/css">
	.st0{fill:#008DB1;}
	.st1{fill:#FFFFFF;stroke:#FFFFFF;stroke-width:2;stroke-miterlimit:10;}
	.st2{font-family:'BalooTammudu2-Regular';}
	.st3{font-size:112.7054px;}
</style>
<circle class="st0" cx="122.1" cy="118.1" r="99.9"/>
<g>
	<g>
		<path class="st1" d="M88.7,147.5c-5,0-9.5-1.2-13.5-3.5c-4-2.3-7.2-5.5-9.5-9.5c-2.3-4-3.5-8.5-3.5-13.6c0-5,1.1-9.5,3.4-13.5
			c2.3-4,5.3-7.2,9.2-9.5s8.3-3.5,13.2-3.5c4.3,0,8.1,0.9,11.5,2.7c3.4,1.8,6.2,4.2,8.3,7.2v-28c0-1.1,0.3-2.1,1-2.7
			c0.7-0.7,1.6-1,2.7-1s2,0.3,2.7,1c0.7,0.7,1,1.6,1,2.7v45c-0.1,5-1.3,9.4-3.7,13.4c-2.3,4-5.5,7.1-9.4,9.4
			C98.2,146.4,93.7,147.5,88.7,147.5z M88.7,140.9c3.7,0,7-0.9,9.9-2.6c2.9-1.7,5.2-4.1,6.9-7.1c1.7-3,2.5-6.4,2.5-10.2
			c0-3.7-0.9-7.1-2.5-10.2c-1.7-3-4-5.4-6.9-7.1s-6.2-2.6-9.9-2.6c-3.6,0-6.9,0.9-9.8,2.6c-2.9,1.7-5.2,4.1-7,7.1
			c-1.7,3-2.6,6.4-2.6,10.2c0,3.8,0.9,7.2,2.6,10.2s4,5.4,7,7.1C81.8,140,85.1,140.9,88.7,140.9z"/>
	</g>
	<g>
		<path class="st1" d="M111.6,147.5c-1.1,0-2-0.3-2.7-1c-0.7-0.7-1-1.5-1-2.6V99.1c0-1.1,0.3-2,1-2.7c0.7-0.7,1.6-1,2.7-1
			c1.1,0,2,0.3,2.6,1c0.7,0.7,1,1.6,1,2.7v44.8c0,1.1-0.3,2-1,2.6C113.5,147.2,112.7,147.5,111.6,147.5z M145.1,147.5
			c-1.1,0-2-0.3-2.7-1c-0.7-0.7-1-1.5-1-2.6v-27.4c0-4.5-1.2-8.1-3.5-10.7s-5.4-3.9-9.1-3.9c-3.9,0-7.2,1.3-9.7,3.8
			c-2.5,2.6-3.8,5.9-3.8,10.1H110c0.1-4.1,1-7.7,2.7-10.8s4-5.6,6.9-7.4c2.9-1.8,6.2-2.7,9.9-2.7c3.7,0,7.1,0.9,10,2.7
			c2.9,1.8,5.1,4.3,6.8,7.5c1.6,3.2,2.4,7.1,2.4,11.4v27.4c0,1.1-0.3,2-1,2.6C147,147.2,146.1,147.5,145.1,147.5z M178.4,147.5
			c-1.1,0-2-0.3-2.7-1c-0.7-0.7-1-1.5-1-2.6v-27.4c0-4.5-1.2-8.1-3.5-10.7s-5.4-3.9-9.1-3.9c-3.9,0-7.2,1.3-9.7,3.9
			c-2.5,2.6-3.7,6.2-3.7,10.5h-6.6c0.1-4.3,1-8,2.8-11.2c1.8-3.2,4.2-5.8,7.3-7.5c3.1-1.8,6.6-2.7,10.6-2.7c3.7,0,7.1,0.9,10,2.7
			c2.9,1.8,5.1,4.3,6.8,7.5c1.6,3.2,2.4,7.1,2.4,11.4v27.4c0,1.1-0.3,2-1,2.6C180.3,147.2,179.4,147.5,178.4,147.5z"/>
	</g>
</g>
<text transform="matrix(1 0 0 1 243.9995 152.0029)" class="st0 st2 st3">davidemasera</text>
</svg>
